<svg width="180" height="180" viewBox="0 0 180 180" fill="none" xmlns="http://www.w3.org/2000/svg">
<circle cx="90" cy="90" r="85" fill="#272727" stroke="#8FB256" stroke-width="10"/>
<g clip-path="url(#clip0_25_116)">
<path d="M131.115 90.365C124.296 90.365 117.543 89.3916 110.968 87.6882C104.393 85.9847 97.3294 85.1219 89.4883 85.1219C81.6472 85.1219 74.2947 86.0511 68.0085 87.6882C61.7223 89.3253 54.6586 90.365 47.8615 90.365C40.5312 90.365 35.1335 83.1751 37.5991 76.2949C44.4629 57.0038 65.0986 43 89.4883 43C113.878 43 134.514 57.0038 141.377 76.2949C143.821 83.1751 138.445 90.365 131.115 90.365Z" fill="#8FB256"/>
<path d="M119.965 92.1127C116.944 91.6703 113.945 91.0287 110.969 90.2765C104.682 88.6616 97.33 87.7103 89.4889 87.7103C81.6478 87.7103 74.3175 88.6616 68.0313 90.2765C65.0548 91.0287 62.0561 91.6703 59.0351 92.1127C56.5695 92.4667 54.748 94.5905 54.748 97.0904V128.615C54.748 133.239 58.5242 137 63.1667 137H115.833C120.476 137 124.252 133.239 124.252 128.615V97.0904C124.252 94.5905 122.431 92.4667 119.965 92.1127ZM70.2748 104.015C70.2748 101.382 72.4072 99.2584 75.0284 99.2584C77.6495 99.2584 79.8041 101.382 79.8041 104.015C79.8041 106.647 77.6717 108.749 75.0284 108.749C72.385 108.749 70.2748 106.625 70.2748 104.015ZM89.4889 124.81C84.1134 124.81 79.6042 121.116 78.4047 116.138H100.573C99.3736 121.116 94.8644 124.81 89.4889 124.81ZM103.972 108.749C101.328 108.749 99.1959 106.625 99.1959 104.015C99.1959 101.404 101.328 99.2584 103.972 99.2584C106.615 99.2584 108.725 101.382 108.725 104.015C108.725 106.647 106.593 108.749 103.972 108.749Z" fill="#F0F0F0"/>
</g>
<defs>
<clipPath id="clip0_25_116">
<rect width="105" height="94" fill="white" transform="translate(37 43)"/>
</clipPath>
</defs>
</svg>
