<svg width="677" height="230" viewBox="0 0 677 230" fill="none" xmlns="http://www.w3.org/2000/svg">
<g clip-path="url(#clip0_23_75)">
<path d="M-9.87425e-05 207.409C-9.87425e-05 206.045 0.768055 205.363 2.04831 205.363H8.02285C9.38845 205.363 10.0713 206.13 10.0713 207.409C10.5834 217.042 14.2534 220.111 24.4955 220.111H44.2968C55.5631 220.111 59.4038 217.554 59.4038 209.114C59.4038 200.675 55.5631 199.396 45.7478 198.629L23.0445 196.753C7.08399 195.474 0.426654 191.041 0.426654 177.487C0.426654 163.933 6.82794 156.772 25.605 156.772H43.87C61.1962 156.772 67.8535 163.847 68.451 179.362C68.451 180.726 67.6828 181.408 66.4026 181.408H60.428C59.0624 181.408 58.3796 180.641 58.3796 179.362C57.8675 169.729 54.1975 166.66 43.9554 166.66H25.7757C14.2534 166.66 10.498 169.133 10.498 177.658C10.498 185.5 14.2534 187.12 24.0687 187.887L46.772 189.678C62.6472 190.956 69.4752 195.645 69.4752 209.114C69.4752 222.583 63.0739 229.915 44.2968 229.915H24.4955C7.16934 229.915 0.512004 222.839 -0.0854492 207.324L-9.87425e-05 207.409Z" fill="#8FB256"/>
<path d="M82.9606 204.852V158.988C82.9606 157.624 83.7287 156.942 85.009 156.942H90.9835C92.3491 156.942 93.0319 157.709 93.0319 158.988V205.193C93.0319 216.872 97.0434 220.196 107.456 220.196H129.818C140.231 220.196 144.157 216.872 144.157 205.193V158.988C144.157 157.624 144.925 156.942 146.205 156.942H152.351C153.716 156.942 154.399 157.709 154.399 158.988V204.852C154.399 220.878 147.571 230 129.818 230H107.456C89.6179 230 82.8752 220.878 82.8752 204.852H82.9606Z" fill="#8FB256"/>
<path d="M222.082 207.239L236.25 227.528C237.189 228.892 236.591 230 234.884 230H227.715C226.691 230 225.837 229.574 225.24 228.636L211.328 208.262H180.089V227.954C180.089 229.318 179.321 230 178.041 230H172.066C170.701 230 170.018 229.233 170.018 227.954V158.988C170.018 157.624 170.786 156.942 172.066 156.942H209.621C231.385 156.942 238.64 164.956 238.64 182.176V183.454C238.64 196.753 234.458 204.681 222.082 207.239ZM228.398 182.261C228.398 169.559 223.618 166.746 209.023 166.746H180.175V198.543H209.023C223.533 198.543 228.398 195.815 228.398 183.284V182.261Z" fill="#8FB256"/>
<path d="M278.413 228.466L245.127 159.414C244.358 157.965 245.127 156.942 246.663 156.942H253.406C254.515 156.942 255.283 157.368 255.795 158.477L285.071 219.003L314.004 158.477C314.517 157.368 315.285 156.942 316.394 156.942H323.137C324.673 156.942 325.356 157.965 324.673 159.414L291.472 228.466C290.96 229.574 290.192 230 289.082 230H280.803C279.694 230 278.925 229.574 278.413 228.466Z" fill="#8FB256"/>
<path d="M334.403 227.954V158.988C334.403 157.624 335.171 156.942 336.451 156.942H342.426C343.792 156.942 344.474 157.709 344.474 158.988V227.954C344.474 229.318 343.706 230 342.426 230H336.451C335.086 230 334.403 229.233 334.403 227.954Z" fill="#8FB256"/>
<path d="M387.576 228.466L354.29 159.414C353.521 157.965 354.29 156.942 355.826 156.942H362.569C363.678 156.942 364.446 157.368 364.958 158.477L394.234 219.003L423.167 158.477C423.68 157.368 424.448 156.942 425.557 156.942H432.3C433.836 156.942 434.519 157.965 433.836 159.414L400.635 228.466C400.123 229.574 399.355 230 398.245 230H389.966C388.857 230 388.088 229.574 387.576 228.466Z" fill="#8FB256"/>
<path d="M439.043 204.852V182.176C439.043 165.979 445.785 156.942 463.624 156.942H489.656C507.494 156.942 514.237 166.064 514.237 182.176V204.852C514.237 220.878 507.494 230 489.656 230H463.624C445.785 230 439.043 220.878 439.043 204.852ZM489.656 220.196C500.154 220.196 504.08 216.872 504.08 205.193V181.92C504.08 170.156 500.239 166.831 489.656 166.831H463.624C453.126 166.831 449.199 170.156 449.199 181.92V205.193C449.199 216.872 453.211 220.196 463.624 220.196H489.656Z" fill="#8FB256"/>
<path d="M580.042 207.239L594.21 227.528C595.149 228.892 594.551 230 592.844 230H585.675C584.651 230 583.797 229.574 583.2 228.636L569.288 208.262H538.049V227.954C538.049 229.318 537.281 230 536.001 230H530.026C528.661 230 527.978 229.233 527.978 227.954V158.988C527.978 157.624 528.746 156.942 530.026 156.942H567.581C589.345 156.942 596.6 164.956 596.6 182.176V183.454C596.6 196.753 592.418 204.681 580.042 207.239ZM586.358 182.261C586.358 169.559 581.578 166.746 566.983 166.746H538.135V198.543H566.983C581.493 198.543 586.358 195.815 586.358 183.284V182.261Z" fill="#8FB256"/>
<path d="M607.439 207.409C607.439 206.045 608.208 205.363 609.488 205.363H615.462C616.828 205.363 617.511 206.13 617.511 207.409C618.023 217.042 621.693 220.111 631.935 220.111H651.736C663.002 220.111 666.843 217.554 666.843 209.114C666.843 200.675 663.002 199.396 653.187 198.629L630.484 196.753C614.523 195.474 607.866 191.042 607.866 177.487C607.866 163.933 614.267 156.772 633.044 156.772H651.309C668.636 156.772 675.293 163.847 675.89 179.363C675.89 180.726 675.122 181.408 673.842 181.408H667.867C666.502 181.408 665.819 180.641 665.819 179.363C665.307 169.729 661.637 166.66 651.395 166.66H633.215C621.693 166.66 617.937 169.133 617.937 177.658C617.937 185.5 621.693 187.12 631.508 187.887L654.211 189.678C670.087 190.956 676.915 195.645 676.915 209.114C676.915 222.583 670.513 229.915 651.736 229.915H631.935C614.609 229.915 607.951 222.839 607.354 207.324L607.439 207.409Z" fill="#8FB256"/>
<path d="M0 75.189C0 73.484 0.938855 72.5463 2.64586 72.5463H21.2523C22.9593 72.5463 23.8981 73.484 23.8981 75.189C23.8981 76.894 22.9593 77.8317 21.2523 77.8317H2.64586C0.938855 77.8317 0 76.894 0 75.189ZM0 82.4351C0 80.7302 0.938855 79.7924 2.64586 79.7924H21.2523C22.9593 79.7924 23.8981 80.7302 23.8981 82.4351C23.8981 84.1401 22.9593 85.0778 21.2523 85.0778H2.64586C0.938855 85.0778 0 84.1401 0 82.4351ZM23.9835 118.666C23.9835 120.371 23.0446 121.308 21.3376 121.308H2.64586C0.938855 121.308 0 120.371 0 118.666C0 116.961 0.938855 116.023 2.64586 116.023H21.3376C23.0446 116.023 23.9835 116.961 23.9835 118.666ZM87.1428 67.9429C87.1428 69.6479 86.204 70.5856 84.497 70.5856H4.77963C3.07262 70.5856 2.13376 69.6479 2.13376 67.9429C2.13376 66.2379 3.07262 65.3002 4.77963 65.3002H84.5823C86.2893 65.3002 87.2282 66.2379 87.2282 67.9429H87.1428ZM84.497 128.554H4.77963C3.07262 128.554 2.13376 127.617 2.13376 125.912C2.13376 124.207 3.07262 123.269 4.77963 123.269H84.5823C86.2893 123.269 87.2282 124.207 87.2282 125.912C87.2282 127.617 86.2893 128.554 84.5823 128.554H84.497ZM3.41402 89.6812C3.41402 87.9763 4.35287 87.0385 6.05988 87.0385H72.5479C74.2549 87.0385 75.1938 87.9763 75.1938 89.6812C75.1938 91.3862 74.2549 92.3239 72.5479 92.3239H6.05988C4.35287 92.3239 3.41402 91.3862 3.41402 89.6812ZM83.1314 60.6968C83.1314 62.4018 82.1925 63.3395 80.4855 63.3395H8.9618C7.25479 63.3395 6.31594 62.4018 6.31594 60.6968C6.31594 58.9918 7.25479 58.0541 8.9618 58.0541H80.4855C82.1925 58.0541 83.1314 58.9918 83.1314 60.6968ZM80.4855 135.801H8.9618C7.25479 135.801 6.31594 134.863 6.31594 133.158C6.31594 131.453 7.25479 130.515 8.9618 130.515H80.4855C82.1925 130.515 83.1314 131.453 83.1314 133.158C83.1314 134.863 82.1925 135.801 80.4855 135.801ZM6.82804 96.9273C6.82804 95.2224 7.76689 94.2846 9.4739 94.2846H79.632C81.339 94.2846 82.2779 95.2224 82.2779 96.9273C82.2779 98.6323 81.339 99.57 79.632 99.57H9.4739C7.76689 99.57 6.82804 98.6323 6.82804 96.9273ZM85.4358 104.173C85.4358 105.878 84.497 106.816 82.79 106.816H16.3873C14.6803 106.816 13.7414 105.878 13.7414 104.173C13.7414 102.468 14.6803 101.531 16.3873 101.531H82.8753C84.5823 101.531 85.5212 102.468 85.5212 104.173H85.4358ZM73.1454 53.4507C73.1454 55.1556 72.2065 56.0934 70.4995 56.0934H18.8625C17.1554 56.0934 16.2166 55.1556 16.2166 53.4507C16.2166 51.7457 17.1554 50.808 18.8625 50.808H70.5848C72.2919 50.808 73.2307 51.7457 73.2307 53.4507H73.1454ZM70.4995 143.047H18.8625C17.1554 143.047 16.2166 142.109 16.2166 140.404C16.2166 138.699 17.1554 137.761 18.8625 137.761H70.5848C72.2919 137.761 73.2307 138.699 73.2307 140.404C73.2307 142.109 72.2919 143.047 70.5848 143.047H70.4995ZM64.8664 75.189C64.8664 73.484 65.8052 72.5463 67.5122 72.5463H86.204C87.911 72.5463 88.8498 73.484 88.8498 75.189C88.8498 76.894 87.911 77.8317 86.204 77.8317H67.5122C65.8052 77.8317 64.8664 76.894 64.8664 75.189ZM88.8498 111.42C88.8498 113.125 87.911 114.062 86.204 114.062H67.5976C65.8906 114.062 64.9517 113.125 64.9517 111.42C64.9517 109.715 65.8906 108.777 67.5976 108.777H86.204C87.911 108.777 88.8498 109.715 88.8498 111.42ZM88.8498 118.666C88.8498 120.371 87.911 121.308 86.204 121.308H67.5976C65.8906 121.308 64.9517 120.371 64.9517 118.666C64.9517 116.961 65.8906 116.023 67.5976 116.023H86.204C87.911 116.023 88.8498 116.961 88.8498 118.666Z" fill="white"/>
<path d="M133.403 53.4507C133.403 55.1556 132.464 56.0934 130.757 56.0934H112.577C110.87 56.0934 109.932 55.1556 109.932 53.4507C109.932 51.7457 110.87 50.808 112.577 50.808H130.757C132.464 50.808 133.403 51.7457 133.403 53.4507ZM133.403 60.6968C133.403 62.4018 132.464 63.3395 130.757 63.3395H112.577C110.87 63.3395 109.932 62.4018 109.932 60.6968C109.932 58.9918 110.87 58.0541 112.577 58.0541H130.757C132.464 58.0541 133.403 58.9918 133.403 60.6968ZM133.403 67.9429C133.403 69.6479 132.464 70.5856 130.757 70.5856H112.577C110.87 70.5856 109.932 69.6479 109.932 67.9429C109.932 66.2379 110.87 65.3002 112.577 65.3002H130.757C132.464 65.3002 133.403 66.2379 133.403 67.9429ZM133.403 75.189C133.403 76.894 132.464 77.8317 130.757 77.8317H112.577C110.87 77.8317 109.932 76.894 109.932 75.189C109.932 73.484 110.87 72.5463 112.577 72.5463H130.757C132.464 72.5463 133.403 73.484 133.403 75.189ZM133.403 82.4351C133.403 84.1401 132.464 85.0778 130.757 85.0778H112.577C110.87 85.0778 109.932 84.1401 109.932 82.4351C109.932 80.7302 110.87 79.7924 112.577 79.7924H130.757C132.464 79.7924 133.403 80.7302 133.403 82.4351ZM197.757 89.6812C197.757 91.3862 196.818 92.3239 195.111 92.3239H112.492C110.785 92.3239 109.846 91.3862 109.846 89.6812C109.846 87.9763 110.785 87.0385 112.492 87.0385H195.111C196.818 87.0385 197.757 87.9763 197.757 89.6812ZM197.757 96.9273C197.757 98.6323 196.818 99.57 195.111 99.57H112.492C110.785 99.57 109.846 98.6323 109.846 96.9273C109.846 95.2224 110.785 94.2846 112.492 94.2846H195.111C196.818 94.2846 197.757 95.2224 197.757 96.9273ZM197.757 104.173C197.757 105.878 196.818 106.816 195.111 106.816H112.492C110.785 106.816 109.846 105.878 109.846 104.173C109.846 102.468 110.785 101.531 112.492 101.531H195.111C196.818 101.531 197.757 102.468 197.757 104.173ZM133.403 111.42C133.403 113.125 132.464 114.062 130.757 114.062H112.577C110.87 114.062 109.932 113.125 109.932 111.42C109.932 109.715 110.87 108.777 112.577 108.777H130.757C132.464 108.777 133.403 109.715 133.403 111.42ZM133.403 118.666C133.403 120.371 132.464 121.308 130.757 121.308H112.577C110.87 121.308 109.932 120.371 109.932 118.666C109.932 116.961 110.87 116.023 112.577 116.023H130.757C132.464 116.023 133.403 116.961 133.403 118.666ZM133.403 125.912C133.403 127.617 132.464 128.554 130.757 128.554H112.577C110.87 128.554 109.932 127.617 109.932 125.912C109.932 124.207 110.87 123.269 112.577 123.269H130.757C132.464 123.269 133.403 124.207 133.403 125.912ZM133.403 133.158C133.403 134.863 132.464 135.801 130.757 135.801H112.577C110.87 135.801 109.932 134.863 109.932 133.158C109.932 131.453 110.87 130.515 112.577 130.515H130.757C132.464 130.515 133.403 131.453 133.403 133.158ZM133.403 140.404C133.403 142.109 132.464 143.047 130.757 143.047H112.577C110.87 143.047 109.932 142.109 109.932 140.404C109.932 138.699 110.87 137.761 112.577 137.761H130.757C132.464 137.761 133.403 138.699 133.403 140.404ZM197.757 53.4507C197.757 55.1556 196.818 56.0934 195.111 56.0934H176.932C175.225 56.0934 174.286 55.1556 174.286 53.4507C174.286 51.7457 175.225 50.808 176.932 50.808H195.111C196.818 50.808 197.757 51.7457 197.757 53.4507ZM197.757 60.6968C197.757 62.4018 196.818 63.3395 195.111 63.3395H176.932C175.225 63.3395 174.286 62.4018 174.286 60.6968C174.286 58.9918 175.225 58.0541 176.932 58.0541H195.111C196.818 58.0541 197.757 58.9918 197.757 60.6968ZM197.757 67.9429C197.757 69.6479 196.818 70.5856 195.111 70.5856H176.932C175.225 70.5856 174.286 69.6479 174.286 67.9429C174.286 66.2379 175.225 65.3002 176.932 65.3002H195.111C196.818 65.3002 197.757 66.2379 197.757 67.9429ZM197.757 75.189C197.757 76.894 196.818 77.8317 195.111 77.8317H176.932C175.225 77.8317 174.286 76.894 174.286 75.189C174.286 73.484 175.225 72.5463 176.932 72.5463H195.111C196.818 72.5463 197.757 73.484 197.757 75.189ZM197.757 82.4351C197.757 84.1401 196.818 85.0778 195.111 85.0778H176.932C175.225 85.0778 174.286 84.1401 174.286 82.4351C174.286 80.7302 175.225 79.7924 176.932 79.7924H195.111C196.818 79.7924 197.757 80.7302 197.757 82.4351ZM197.757 111.42C197.757 113.125 196.818 114.062 195.111 114.062H176.932C175.225 114.062 174.286 113.125 174.286 111.42C174.286 109.715 175.225 108.777 176.932 108.777H195.111C196.818 108.777 197.757 109.715 197.757 111.42ZM197.757 118.666C197.757 120.371 196.818 121.308 195.111 121.308H176.932C175.225 121.308 174.286 120.371 174.286 118.666C174.286 116.961 175.225 116.023 176.932 116.023H195.111C196.818 116.023 197.757 116.961 197.757 118.666ZM197.757 125.912C197.757 127.617 196.818 128.554 195.111 128.554H176.932C175.225 128.554 174.286 127.617 174.286 125.912C174.286 124.207 175.225 123.269 176.932 123.269H195.111C196.818 123.269 197.757 124.207 197.757 125.912ZM197.757 133.158C197.757 134.863 196.818 135.801 195.111 135.801H176.932C175.225 135.801 174.286 134.863 174.286 133.158C174.286 131.453 175.225 130.515 176.932 130.515H195.111C196.818 130.515 197.757 131.453 197.757 133.158ZM197.757 140.404C197.757 142.109 196.818 143.047 195.111 143.047H176.932C175.225 143.047 174.286 142.109 174.286 140.404C174.286 138.699 175.225 137.761 176.932 137.761H195.111C196.818 137.761 197.757 138.699 197.757 140.404Z" fill="white"/>
<path d="M293.264 53.4507C293.264 55.1556 292.325 56.0934 290.618 56.0934H223.703C221.996 56.0934 221.058 55.1556 221.058 53.4507C221.058 51.7457 221.996 50.808 223.703 50.808H290.618C292.325 50.808 293.264 51.7457 293.264 53.4507ZM302.482 60.6968C302.482 62.4018 301.543 63.3395 299.836 63.3395H223.703C221.996 63.3395 221.058 62.4018 221.058 60.6968C221.058 58.9918 221.996 58.0541 223.703 58.0541H299.836C301.543 58.0541 302.482 58.9918 302.482 60.6968ZM306.579 67.9429C306.579 69.6479 305.64 70.5856 303.933 70.5856H223.703C221.996 70.5856 221.058 69.6479 221.058 67.9429C221.058 66.2379 221.996 65.3002 223.703 65.3002H303.933C305.64 65.3002 306.579 66.2379 306.579 67.9429ZM244.614 75.189C244.614 76.894 243.675 77.8317 241.968 77.8317H223.789C222.082 77.8317 221.143 76.894 221.143 75.189C221.143 73.484 222.082 72.5463 223.789 72.5463H241.968C243.675 72.5463 244.614 73.484 244.614 75.189ZM244.614 82.4351C244.614 84.1401 243.675 85.0778 241.968 85.0778H223.789C222.082 85.0778 221.143 84.1401 221.143 82.4351C221.143 80.7302 222.082 79.7924 223.789 79.7924H241.968C243.675 79.7924 244.614 80.7302 244.614 82.4351ZM244.614 89.6812C244.614 91.3862 243.675 92.3239 241.968 92.3239H223.789C222.082 92.3239 221.143 91.3862 221.143 89.6812C221.143 87.9763 222.082 87.0385 223.789 87.0385H241.968C243.675 87.0385 244.614 87.9763 244.614 89.6812ZM244.614 96.9273C244.614 98.6323 243.675 99.57 241.968 99.57H223.789C222.082 99.57 221.143 98.6323 221.143 96.9273C221.143 95.2224 222.082 94.2846 223.789 94.2846H241.968C243.675 94.2846 244.614 95.2224 244.614 96.9273ZM306.579 104.173C306.579 105.878 305.64 106.816 303.933 106.816H223.703C221.996 106.816 221.058 105.878 221.058 104.173C221.058 102.468 221.996 101.531 223.703 101.531H303.933C305.64 101.531 306.579 102.468 306.579 104.173ZM302.482 111.42C302.482 113.125 301.543 114.062 299.836 114.062H223.703C221.996 114.062 221.058 113.125 221.058 111.42C221.058 109.715 221.996 108.777 223.703 108.777H299.836C301.543 108.777 302.482 109.715 302.482 111.42ZM293.264 118.666C293.264 120.371 292.325 121.308 290.618 121.308H223.703C221.996 121.308 221.058 120.371 221.058 118.666C221.058 116.961 221.996 116.023 223.703 116.023H290.618C292.325 116.023 293.264 116.961 293.264 118.666ZM244.614 125.912C244.614 127.617 243.675 128.554 241.968 128.554H223.789C222.082 128.554 221.143 127.617 221.143 125.912C221.143 124.207 222.082 123.269 223.789 123.269H241.968C243.675 123.269 244.614 124.207 244.614 125.912ZM244.614 133.158C244.614 134.863 243.675 135.801 241.968 135.801H223.789C222.082 135.801 221.143 134.863 221.143 133.158C221.143 131.453 222.082 130.515 223.789 130.515H241.968C243.675 130.515 244.614 131.453 244.614 133.158ZM244.614 140.404C244.614 142.109 243.675 143.047 241.968 143.047H223.789C222.082 143.047 221.143 142.109 221.143 140.404C221.143 138.699 222.082 137.761 223.789 137.761H241.968C243.675 137.761 244.614 138.699 244.614 140.404ZM297.617 125.912C297.617 127.617 296.678 128.554 294.971 128.554H274.914C273.207 128.554 272.268 127.617 272.268 125.912C272.268 124.207 273.207 123.269 274.914 123.269H294.971C296.678 123.269 297.617 124.207 297.617 125.912ZM302.738 133.158C302.738 134.863 301.799 135.801 300.092 135.801H279.352C277.645 135.801 276.706 134.863 276.706 133.158C276.706 131.453 277.645 130.515 279.352 130.515H300.092C301.799 130.515 302.738 131.453 302.738 133.158ZM281.23 140.404C281.23 138.699 282.169 137.761 283.876 137.761H305.128C306.835 137.761 307.774 138.699 307.774 140.404C307.774 142.109 306.835 143.047 305.128 143.047H283.876C282.169 143.047 281.23 142.109 281.23 140.404ZM308.627 75.189C308.627 76.894 307.688 77.8317 305.981 77.8317H284.644C282.937 77.8317 281.998 76.894 281.998 75.189C281.998 73.484 282.937 72.5463 284.644 72.5463H305.981C307.688 72.5463 308.627 73.484 308.627 75.189ZM308.627 96.9273C308.627 98.6323 307.688 99.57 305.981 99.57H284.644C282.937 99.57 281.998 98.6323 281.998 96.9273C281.998 95.2224 282.937 94.2846 284.644 94.2846H305.981C307.688 94.2846 308.627 95.2224 308.627 96.9273ZM309.31 82.4351C309.31 84.1401 308.371 85.0778 306.664 85.0778H288.314C286.607 85.0778 285.668 84.1401 285.668 82.4351C285.668 80.7302 286.607 79.7924 288.314 79.7924H306.664C308.371 79.7924 309.31 80.7302 309.31 82.4351ZM309.31 89.6812C309.31 91.3862 308.371 92.3239 306.664 92.3239H288.314C286.607 92.3239 285.668 91.3862 285.668 89.6812C285.668 87.9763 286.607 87.0385 288.314 87.0385H306.664C308.371 87.0385 309.31 87.9763 309.31 89.6812Z" fill="white"/>
<path d="M352.668 82.4351C352.668 84.1401 351.729 85.0778 350.022 85.0778H331.843C330.136 85.0778 329.197 84.1401 329.197 82.4351C329.197 80.7302 330.136 79.7924 331.843 79.7924H350.022C351.729 79.7924 352.668 80.7302 352.668 82.4351ZM352.668 89.6812C352.668 91.3862 351.729 92.3239 350.022 92.3239H331.843C330.136 92.3239 329.197 91.3862 329.197 89.6812C329.197 87.9763 330.136 87.0385 331.843 87.0385H350.022C351.729 87.0385 352.668 87.9763 352.668 89.6812ZM352.668 96.9273C352.668 98.6323 351.729 99.57 350.022 99.57H331.843C330.136 99.57 329.197 98.6323 329.197 96.9273C329.197 95.2224 330.136 94.2846 331.843 94.2846H350.022C351.729 94.2846 352.668 95.2224 352.668 96.9273ZM352.668 104.173C352.668 105.878 351.729 106.816 350.022 106.816H331.843C330.136 106.816 329.197 105.878 329.197 104.173C329.197 102.468 330.136 101.531 331.843 101.531H350.022C351.729 101.531 352.668 102.468 352.668 104.173ZM352.668 111.42C352.668 113.125 351.729 114.062 350.022 114.062H331.843C330.136 114.062 329.197 113.125 329.197 111.42C329.197 109.715 330.136 108.777 331.843 108.777H350.022C351.729 108.777 352.668 109.715 352.668 111.42ZM354.546 75.189C354.546 76.894 353.607 77.8317 351.9 77.8317H332.355C330.648 77.8317 329.709 76.894 329.709 75.189C329.709 73.484 330.648 72.5463 332.355 72.5463H351.9C353.607 72.5463 354.546 73.484 354.546 75.189ZM354.546 118.666C354.546 120.371 353.607 121.308 351.9 121.308H332.355C330.648 121.308 329.709 120.371 329.709 118.666C329.709 116.961 330.648 116.023 332.355 116.023H351.9C353.607 116.023 354.546 116.961 354.546 118.666ZM423.936 67.9429C423.936 69.6479 422.997 70.5856 421.29 70.5856H334.318C332.611 70.5856 331.672 69.6479 331.672 67.9429C331.672 66.2379 332.611 65.3002 334.318 65.3002H421.29C422.997 65.3002 423.936 66.2379 423.936 67.9429ZM423.936 125.912C423.936 127.617 422.997 128.554 421.29 128.554H334.318C332.611 128.554 331.672 127.617 331.672 125.912C331.672 124.207 332.611 123.269 334.318 123.269H421.29C422.997 123.269 423.936 124.207 423.936 125.912ZM419.839 60.6968C419.839 62.4018 418.9 63.3395 417.193 63.3395H338.585C336.878 63.3395 335.939 62.4018 335.939 60.6968C335.939 58.9918 336.878 58.0541 338.585 58.0541H417.193C418.9 58.0541 419.839 58.9918 419.839 60.6968ZM419.839 133.158C419.839 134.863 418.9 135.801 417.193 135.801H338.585C336.878 135.801 335.939 134.863 335.939 133.158C335.939 131.453 336.878 130.515 338.585 130.515H417.193C418.9 130.515 419.839 131.453 419.839 133.158ZM409.938 53.4507C409.938 55.1556 408.999 56.0934 407.292 56.0934H348.486C346.779 56.0934 345.84 55.1556 345.84 53.4507C345.84 51.7457 346.779 50.808 348.486 50.808H407.292C408.999 50.808 409.938 51.7457 409.938 53.4507ZM409.938 140.404C409.938 142.109 408.999 143.047 407.292 143.047H348.486C346.779 143.047 345.84 142.109 345.84 140.404C345.84 138.699 346.779 137.761 348.486 137.761H407.292C408.999 137.761 409.938 138.699 409.938 140.404ZM425.899 75.189C425.899 76.894 424.96 77.8317 423.253 77.8317H403.708C402.001 77.8317 401.062 76.894 401.062 75.189C401.062 73.484 402.001 72.5463 403.708 72.5463H423.253C424.96 72.5463 425.899 73.484 425.899 75.189ZM425.899 118.666C425.899 120.371 424.96 121.308 423.253 121.308H403.708C402.001 121.308 401.062 120.371 401.062 118.666C401.062 116.961 402.001 116.023 403.708 116.023H423.253C424.96 116.023 425.899 116.961 425.899 118.666ZM426.411 82.4351C426.411 84.1401 425.472 85.0778 423.765 85.0778H405.585C403.878 85.0778 402.94 84.1401 402.94 82.4351C402.94 80.7302 403.878 79.7924 405.585 79.7924H423.765C425.472 79.7924 426.411 80.7302 426.411 82.4351ZM426.411 89.6812C426.411 91.3862 425.472 92.3239 423.765 92.3239H405.585C403.878 92.3239 402.94 91.3862 402.94 89.6812C402.94 87.9763 403.878 87.0385 405.585 87.0385H423.765C425.472 87.0385 426.411 87.9763 426.411 89.6812ZM426.411 96.9273C426.411 98.6323 425.472 99.57 423.765 99.57H405.585C403.878 99.57 402.94 98.6323 402.94 96.9273C402.94 95.2224 403.878 94.2846 405.585 94.2846H423.765C425.472 94.2846 426.411 95.2224 426.411 96.9273ZM426.411 104.173C426.411 105.878 425.472 106.816 423.765 106.816H405.585C403.878 106.816 402.94 105.878 402.94 104.173C402.94 102.468 403.878 101.531 405.585 101.531H423.765C425.472 101.531 426.411 102.468 426.411 104.173ZM426.411 111.42C426.411 113.125 425.472 114.062 423.765 114.062H405.585C403.878 114.062 402.94 113.125 402.94 111.42C402.94 109.715 403.878 108.777 405.585 108.777H423.765C425.472 108.777 426.411 109.715 426.411 111.42Z" fill="white"/>
<path d="M469.684 82.4351C469.684 84.1401 468.745 85.0778 467.038 85.0778H448.858C447.151 85.0778 446.212 84.1401 446.212 82.4351C446.212 80.7302 447.151 79.7924 448.858 79.7924H467.038C468.745 79.7924 469.684 80.7302 469.684 82.4351ZM469.684 89.6812C469.684 91.3862 468.745 92.3239 467.038 92.3239H448.858C447.151 92.3239 446.212 91.3862 446.212 89.6812C446.212 87.9763 447.151 87.0385 448.858 87.0385H467.038C468.745 87.0385 469.684 87.9763 469.684 89.6812ZM469.684 96.9273C469.684 98.6323 468.745 99.57 467.038 99.57H448.858C447.151 99.57 446.212 98.6323 446.212 96.9273C446.212 95.2224 447.151 94.2846 448.858 94.2846H467.038C468.745 94.2846 469.684 95.2224 469.684 96.9273ZM469.684 104.173C469.684 105.878 468.745 106.816 467.038 106.816H448.858C447.151 106.816 446.212 105.878 446.212 104.173C446.212 102.468 447.151 101.531 448.858 101.531H467.038C468.745 101.531 469.684 102.468 469.684 104.173ZM469.684 111.42C469.684 113.125 468.745 114.062 467.038 114.062H448.858C447.151 114.062 446.212 113.125 446.212 111.42C446.212 109.715 447.151 108.777 448.858 108.777H467.038C468.745 108.777 469.684 109.715 469.684 111.42ZM471.562 75.189C471.562 76.894 470.623 77.8317 468.916 77.8317H449.37C447.663 77.8317 446.725 76.894 446.725 75.189C446.725 73.484 447.663 72.5463 449.37 72.5463H468.916C470.623 72.5463 471.562 73.484 471.562 75.189ZM471.562 118.666C471.562 120.371 470.623 121.308 468.916 121.308H449.37C447.663 121.308 446.725 120.371 446.725 118.666C446.725 116.961 447.663 116.023 449.37 116.023H468.916C470.623 116.023 471.562 116.961 471.562 118.666ZM540.951 67.9429C540.951 69.6479 540.013 70.5856 538.306 70.5856H451.333C449.626 70.5856 448.688 69.6479 448.688 67.9429C448.688 66.2379 449.626 65.3002 451.333 65.3002H538.306C540.013 65.3002 540.951 66.2379 540.951 67.9429ZM540.951 125.912C540.951 127.617 540.013 128.554 538.306 128.554H451.333C449.626 128.554 448.688 127.617 448.688 125.912C448.688 124.207 449.626 123.269 451.333 123.269H538.306C540.013 123.269 540.951 124.207 540.951 125.912ZM536.855 60.6968C536.855 62.4018 535.916 63.3395 534.209 63.3395H455.601C453.894 63.3395 452.955 62.4018 452.955 60.6968C452.955 58.9918 453.894 58.0541 455.601 58.0541H534.209C535.916 58.0541 536.855 58.9918 536.855 60.6968ZM536.855 133.158C536.855 134.863 535.916 135.801 534.209 135.801H455.601C453.894 135.801 452.955 134.863 452.955 133.158C452.955 131.453 453.894 130.515 455.601 130.515H534.209C535.916 130.515 536.855 131.453 536.855 133.158ZM526.954 53.4507C526.954 55.1556 526.015 56.0934 524.308 56.0934H465.502C463.795 56.0934 462.856 55.1556 462.856 53.4507C462.856 51.7457 463.795 50.808 465.502 50.808H524.308C526.015 50.808 526.954 51.7457 526.954 53.4507ZM526.954 140.404C526.954 142.109 526.015 143.047 524.308 143.047H465.502C463.795 143.047 462.856 142.109 462.856 140.404C462.856 138.699 463.795 137.761 465.502 137.761H524.308C526.015 137.761 526.954 138.699 526.954 140.404ZM542.915 75.189C542.915 76.894 541.976 77.8317 540.269 77.8317H520.723C519.016 77.8317 518.078 76.894 518.078 75.189C518.078 73.484 519.016 72.5463 520.723 72.5463H540.269C541.976 72.5463 542.915 73.484 542.915 75.189ZM542.915 118.666C542.915 120.371 541.976 121.308 540.269 121.308H520.723C519.016 121.308 518.078 120.371 518.078 118.666C518.078 116.961 519.016 116.023 520.723 116.023H540.269C541.976 116.023 542.915 116.961 542.915 118.666ZM543.427 82.4351C543.427 84.1401 542.488 85.0778 540.781 85.0778H522.601C520.894 85.0778 519.955 84.1401 519.955 82.4351C519.955 80.7302 520.894 79.7924 522.601 79.7924H540.781C542.488 79.7924 543.427 80.7302 543.427 82.4351ZM543.427 89.6812C543.427 91.3862 542.488 92.3239 540.781 92.3239H522.601C520.894 92.3239 519.955 91.3862 519.955 89.6812C519.955 87.9763 520.894 87.0385 522.601 87.0385H540.781C542.488 87.0385 543.427 87.9763 543.427 89.6812ZM543.427 96.9273C543.427 98.6323 542.488 99.57 540.781 99.57H522.601C520.894 99.57 519.955 98.6323 519.955 96.9273C519.955 95.2224 520.894 94.2846 522.601 94.2846H540.781C542.488 94.2846 543.427 95.2224 543.427 96.9273ZM543.427 104.173C543.427 105.878 542.488 106.816 540.781 106.816H522.601C520.894 106.816 519.955 105.878 519.955 104.173C519.955 102.468 520.894 101.531 522.601 101.531H540.781C542.488 101.531 543.427 102.468 543.427 104.173ZM543.427 111.42C543.427 113.125 542.488 114.062 540.781 114.062H522.601C520.894 114.062 519.955 113.125 519.955 111.42C519.955 109.715 520.894 108.777 522.601 108.777H540.781C542.488 108.777 543.427 109.715 543.427 111.42Z" fill="white"/>
<path d="M591.906 53.4507C591.906 55.1556 590.967 56.0934 589.26 56.0934H567.666C565.959 56.0934 565.02 55.1556 565.02 53.4507C565.02 51.7457 565.959 50.808 567.666 50.808H589.26C590.967 50.808 591.906 51.7457 591.906 53.4507ZM596.088 60.6968C596.088 62.4018 595.149 63.3395 593.442 63.3395H567.581C565.874 63.3395 564.935 62.4018 564.935 60.6968C564.935 58.9918 565.874 58.0541 567.581 58.0541H593.442C595.149 58.0541 596.088 58.9918 596.088 60.6968ZM600.441 67.9429C600.441 69.6479 599.502 70.5856 597.795 70.5856H567.581C565.874 70.5856 564.935 69.6479 564.935 67.9429C564.935 66.2379 565.874 65.3002 567.581 65.3002H597.795C599.502 65.3002 600.441 66.2379 600.441 67.9429ZM604.793 75.189C604.793 76.894 603.855 77.8317 602.148 77.8317H567.581C565.874 77.8317 564.935 76.894 564.935 75.189C564.935 73.484 565.874 72.5463 567.581 72.5463H602.148C603.855 72.5463 604.793 73.484 604.793 75.189ZM609.146 82.4351C609.146 84.1401 608.207 85.0778 606.5 85.0778H567.581C565.874 85.0778 564.935 84.1401 564.935 82.4351C564.935 80.7302 565.874 79.7924 567.581 79.7924H606.5C608.207 79.7924 609.146 80.7302 609.146 82.4351ZM613.329 89.6812C613.329 91.3862 612.39 92.3239 610.683 92.3239H567.581C565.874 92.3239 564.935 91.3862 564.935 89.6812C564.935 87.9763 565.874 87.0385 567.581 87.0385H610.683C612.39 87.0385 613.329 87.9763 613.329 89.6812ZM564.935 96.9273C564.935 95.2224 565.874 94.2846 567.581 94.2846H585.675C587.382 94.2846 588.321 95.2224 588.321 96.9273C588.321 98.6323 587.382 99.57 585.675 99.57H567.581C565.874 99.57 564.935 98.6323 564.935 96.9273ZM564.935 104.173C564.935 102.468 565.874 101.531 567.581 101.531H585.675C587.382 101.531 588.321 102.468 588.321 104.173C588.321 105.878 587.382 106.816 585.675 106.816H567.581C565.874 106.816 564.935 105.878 564.935 104.173ZM564.935 111.42C564.935 109.715 565.874 108.777 567.581 108.777H585.675C587.382 108.777 588.321 109.715 588.321 111.42C588.321 113.125 587.382 114.062 585.675 114.062H567.581C565.874 114.062 564.935 113.125 564.935 111.42ZM564.935 118.666C564.935 116.961 565.874 116.023 567.581 116.023H585.675C587.382 116.023 588.321 116.961 588.321 118.666C588.321 120.371 587.382 121.308 585.675 121.308H567.581C565.874 121.308 564.935 120.371 564.935 118.666ZM564.935 125.912C564.935 124.207 565.874 123.269 567.581 123.269H585.675C587.382 123.269 588.321 124.207 588.321 125.912C588.321 127.617 587.382 128.554 585.675 128.554H567.581C565.874 128.554 564.935 127.617 564.935 125.912ZM564.935 133.158C564.935 131.453 565.874 130.515 567.581 130.515H585.675C587.382 130.515 588.321 131.453 588.321 133.158C588.321 134.863 587.382 135.801 585.675 135.801H567.581C565.874 135.801 564.935 134.863 564.935 133.158ZM564.935 140.404C564.935 138.699 565.874 137.761 567.581 137.761H585.675C587.382 137.761 588.321 138.699 588.321 140.404C588.321 142.109 587.382 143.047 585.675 143.047H567.581C565.874 143.047 564.935 142.109 564.935 140.404ZM617.681 96.9273C617.681 98.6323 616.743 99.57 615.036 99.57H595.49C593.783 99.57 592.844 98.6323 592.844 96.9273C592.844 95.2224 593.783 94.2846 595.49 94.2846H615.036C616.743 94.2846 617.681 95.2224 617.681 96.9273ZM597.197 104.173C597.197 102.468 598.136 101.531 599.843 101.531H641.836C643.543 101.531 644.481 102.468 644.481 104.173C644.481 105.878 643.543 106.816 641.836 106.816H599.843C598.136 106.816 597.197 105.878 597.197 104.173ZM601.55 111.42C601.55 109.715 602.489 108.777 604.196 108.777H637.312C639.019 108.777 639.958 109.715 639.958 111.42C639.958 113.125 639.019 114.062 637.312 114.062H604.196C602.489 114.062 601.55 113.125 601.55 111.42ZM606.074 118.666C606.074 116.961 607.013 116.023 608.72 116.023H632.959C634.666 116.023 635.605 116.961 635.605 118.666C635.605 120.371 634.666 121.308 632.959 121.308H608.72C607.013 121.308 606.074 120.371 606.074 118.666ZM610.427 125.912C610.427 124.207 611.365 123.269 613.072 123.269H628.606C630.313 123.269 631.252 124.207 631.252 125.912C631.252 127.617 630.313 128.554 628.606 128.554H613.072C611.365 128.554 610.427 127.617 610.427 125.912ZM624.253 96.9273C624.253 95.2224 625.192 94.2846 626.899 94.2846H646.188C647.895 94.2846 648.834 95.2224 648.834 96.9273C648.834 98.6323 647.895 99.57 646.188 99.57H626.899C625.192 99.57 624.253 98.6323 624.253 96.9273ZM676.915 89.6812C676.915 91.3862 675.976 92.3239 674.269 92.3239H631.167C629.46 92.3239 628.521 91.3862 628.521 89.6812C628.521 87.9763 629.46 87.0385 631.167 87.0385H674.269C675.976 87.0385 676.915 87.9763 676.915 89.6812ZM632.874 82.4351C632.874 80.7302 633.813 79.7924 635.52 79.7924H674.269C675.976 79.7924 676.915 80.7302 676.915 82.4351C676.915 84.1401 675.976 85.0778 674.269 85.0778H635.52C633.813 85.0778 632.874 84.1401 632.874 82.4351ZM637.227 75.189C637.227 73.484 638.166 72.5463 639.873 72.5463H674.269C675.976 72.5463 676.915 73.484 676.915 75.189C676.915 76.894 675.976 77.8317 674.269 77.8317H639.873C638.166 77.8317 637.227 76.894 637.227 75.189ZM641.409 67.9429C641.409 66.2379 642.348 65.3002 644.055 65.3002H674.269C675.976 65.3002 676.915 66.2379 676.915 67.9429C676.915 69.6479 675.976 70.5856 674.269 70.5856H644.055C642.348 70.5856 641.409 69.6479 641.409 67.9429ZM645.762 60.6968C645.762 58.9918 646.701 58.0541 648.408 58.0541H674.269C675.976 58.0541 676.915 58.9918 676.915 60.6968C676.915 62.4018 675.976 63.3395 674.269 63.3395H648.408C646.701 63.3395 645.762 62.4018 645.762 60.6968ZM652.59 50.808H674.183C675.89 50.808 676.829 51.7457 676.829 53.4507C676.829 55.1556 675.89 56.0934 674.183 56.0934H652.59C650.883 56.0934 649.944 55.1556 649.944 53.4507C649.944 51.7457 650.883 50.808 652.59 50.808ZM653.529 96.9273C653.529 95.2224 654.467 94.2846 656.174 94.2846H674.269C675.976 94.2846 676.915 95.2224 676.915 96.9273C676.915 98.6323 675.976 99.57 674.269 99.57H656.174C654.467 99.57 653.529 98.6323 653.529 96.9273ZM653.529 104.173C653.529 102.468 654.467 101.531 656.174 101.531H674.269C675.976 101.531 676.915 102.468 676.915 104.173C676.915 105.878 675.976 106.816 674.269 106.816H656.174C654.467 106.816 653.529 105.878 653.529 104.173ZM653.529 111.42C653.529 109.715 654.467 108.777 656.174 108.777H674.269C675.976 108.777 676.915 109.715 676.915 111.42C676.915 113.125 675.976 114.062 674.269 114.062H656.174C654.467 114.062 653.529 113.125 653.529 111.42ZM653.529 118.666C653.529 116.961 654.467 116.023 656.174 116.023H674.269C675.976 116.023 676.915 116.961 676.915 118.666C676.915 120.371 675.976 121.308 674.269 121.308H656.174C654.467 121.308 653.529 120.371 653.529 118.666ZM653.529 125.912C653.529 124.207 654.467 123.269 656.174 123.269H674.269C675.976 123.269 676.915 124.207 676.915 125.912C676.915 127.617 675.976 128.554 674.269 128.554H656.174C654.467 128.554 653.529 127.617 653.529 125.912ZM653.529 133.158C653.529 131.453 654.467 130.515 656.174 130.515H674.269C675.976 130.515 676.915 131.453 676.915 133.158C676.915 134.863 675.976 135.801 674.269 135.801H656.174C654.467 135.801 653.529 134.863 653.529 133.158ZM653.529 140.404C653.529 138.699 654.467 137.761 656.174 137.761H674.269C675.976 137.761 676.915 138.699 676.915 140.404C676.915 142.109 675.976 143.047 674.269 143.047H656.174C654.467 143.047 653.529 142.109 653.529 140.404Z" fill="white"/>
<path d="M498.362 19.7776H371.701C372.47 17.9022 373.408 16.1119 374.518 14.4922H495.545C496.655 16.1119 497.593 17.9022 498.362 19.7776Z" fill="#7C8C6A"/>
<path d="M494.179 12.5315H375.884C376.737 11.4233 377.591 10.4003 378.615 9.3773C379.383 8.61007 380.151 7.92808 381.005 7.24609H489.058C490.936 8.78056 492.728 10.5708 494.179 12.5315Z" fill="#7C8C6A"/>
<path d="M486.498 5.2854H383.65C388.686 1.96071 394.746 0 401.233 0H468.83C475.402 0 481.377 1.96071 486.498 5.2854Z" fill="#7C8C6A"/>
<path d="M499.812 36.742C499.13 38.5322 498.02 40.152 496.654 41.5159C496.484 41.6864 496.313 41.8569 496.057 42.0274H490.083C487.693 39.8962 484.961 38.0208 482.06 36.742H499.812Z" fill="#7C8C6A"/>
<path d="M388.003 36.742C385.016 38.0208 382.37 39.811 379.98 42.0274H373.835C372.299 40.5782 371.018 38.788 370.25 36.742H388.003Z" fill="#7C8C6A"/>
<path d="M500.751 31.8829C500.751 32.9058 500.666 33.8436 500.41 34.7813H476.341C473.951 34.1846 471.391 33.8436 468.83 33.8436H401.233C398.672 33.8436 396.197 34.1846 393.807 34.7813H369.653C369.397 33.8436 369.312 32.9058 369.312 31.8829C369.312 31.1156 369.312 30.2631 369.397 29.4959H500.666C500.751 30.2631 500.751 31.1156 500.751 31.8829Z" fill="#7C8C6A"/>
<path d="M500.41 27.5352H369.653C369.824 25.6598 370.25 23.9548 370.848 22.2498H499.215C499.812 23.9548 500.239 25.6598 500.41 27.5352Z" fill="#7C8C6A"/>
</g>
<defs>
<clipPath id="clip0_23_75">
<rect width="677" height="230" fill="white"/>
</clipPath>
</defs>
</svg>
